<svg width="635" height="360" viewBox="0 0 635 360" fill="none" xmlns="http://www.w3.org/2000/svg">
<path d="M248 48H112C85.4903 48 64 69.4903 64 96V248C64 274.51 85.4903 296 112 296H248C274.51 296 296 274.51 296 248V96C296 69.4903 274.51 48 248 48Z" fill="#F7FAF8"/>
<path d="M248 48.75H112C85.9045 48.75 64.75 69.9045 64.75 96V248C64.75 274.095 85.9045 295.25 112 295.25H248C274.095 295.25 295.25 274.095 295.25 248V96C295.25 69.9045 274.095 48.75 248 48.75Z" stroke="#265941" stroke-opacity="0.12" stroke-width="1.5"/>
<path d="M94 113C94 103.611 101.611 96 111 96H249C258.389 96 266 103.611 266 113V137H94V113Z" fill="url(#paint0_linear_1001_17)"/>
<path d="M94 137H266V151C266 163.15 256.15 173 244 173C231.85 173 222 163.15 222 151C222 163.15 212.15 173 200 173C187.85 173 178 163.15 178 151C178 163.15 168.15 173 156 173C143.85 173 134 163.15 134 151C134 163.15 124.15 173 112 173C102.059 173 94 164.941 94 155V137Z" fill="#DDEBE3"/>
<path d="M238 167H122C114.268 167 108 173.268 108 181V235C108 242.732 114.268 249 122 249H238C245.732 249 252 242.732 252 235V181C252 173.268 245.732 167 238 167Z" fill="white" stroke="#265941" stroke-width="8"/>
<path d="M129 228V187L153 211L180 181L207 211L231 187V228" stroke="url(#paint1_linear_1001_17)" stroke-width="13" stroke-linecap="round" stroke-linejoin="round"/>
<path d="M94 267C116 255 138 255 160 267C182 279 204 279 226 267C242 258.273 255.333 256.273 266 261" stroke="url(#paint2_linear_1001_17)" stroke-width="8" stroke-linecap="round"/>
<path d="M108 282C126 273 144 273 162 282C180 291 198 291 216 282C232 274 246 274 258 280" stroke="#6A9DB0" stroke-opacity="0.55" stroke-width="5" stroke-linecap="round"/>
<path d="M354.804 108.727H369.216L384.438 145.864H385.085L400.307 108.727H414.719V164H403.384V128.024H402.925L388.621 163.73H380.902L366.598 127.889H366.139V164H354.804V108.727ZM442.861 164.81C438.669 164.81 435.043 163.919 431.985 162.138C428.944 160.339 426.596 157.838 424.941 154.635C423.285 151.414 422.458 147.681 422.458 143.435C422.458 139.152 423.285 135.41 424.941 132.207C426.596 128.987 428.944 126.486 431.985 124.705C435.043 122.905 438.669 122.006 442.861 122.006C447.053 122.006 450.67 122.905 453.711 124.705C456.769 126.486 459.126 128.987 460.782 132.207C462.437 135.41 463.265 139.152 463.265 143.435C463.265 147.681 462.437 151.414 460.782 154.635C459.126 157.838 456.769 160.339 453.711 162.138C450.67 163.919 447.053 164.81 442.861 164.81ZM442.915 155.903C444.822 155.903 446.415 155.364 447.692 154.284C448.97 153.187 449.932 151.693 450.58 149.804C451.246 147.915 451.578 145.765 451.578 143.354C451.578 140.943 451.246 138.793 450.58 136.903C449.932 135.014 448.97 133.521 447.692 132.423C446.415 131.326 444.822 130.777 442.915 130.777C440.99 130.777 439.371 131.326 438.057 132.423C436.762 133.521 435.781 135.014 435.115 136.903C434.468 138.793 434.144 140.943 434.144 143.354C434.144 145.765 434.468 147.915 435.115 149.804C435.781 151.693 436.762 153.187 438.057 154.284C439.371 155.364 440.99 155.903 442.915 155.903ZM482.238 140.034V164H470.74V122.545H481.698V129.859H482.184C483.101 127.448 484.64 125.541 486.799 124.138C488.958 122.716 491.576 122.006 494.652 122.006C497.531 122.006 500.041 122.635 502.182 123.895C504.323 125.154 505.988 126.954 507.175 129.293C508.363 131.614 508.956 134.384 508.956 137.605V164H497.459V139.656C497.477 137.119 496.829 135.14 495.516 133.719C494.203 132.279 492.394 131.56 490.091 131.56C488.544 131.56 487.176 131.893 485.989 132.558C484.819 133.224 483.902 134.196 483.236 135.473C482.588 136.732 482.256 138.253 482.238 140.034ZM540.067 122.545V131.182H515.103V122.545H540.067ZM520.771 112.614H532.268V151.261C532.268 152.323 532.43 153.151 532.754 153.744C533.077 154.32 533.527 154.725 534.103 154.959C534.697 155.193 535.38 155.31 536.154 155.31C536.694 155.31 537.234 155.265 537.773 155.175C538.313 155.067 538.727 154.986 539.015 154.932L540.823 163.487C540.247 163.667 539.438 163.874 538.394 164.108C537.351 164.36 536.082 164.513 534.589 164.567C531.818 164.675 529.389 164.306 527.302 163.46C525.233 162.615 523.622 161.301 522.471 159.52C521.319 157.739 520.753 155.49 520.771 152.773V112.614ZM547.557 164V122.545H558.703V129.778H559.135C559.891 127.205 561.159 125.262 562.94 123.949C564.722 122.617 566.773 121.952 569.094 121.952C569.67 121.952 570.29 121.988 570.956 122.06C571.622 122.132 572.206 122.231 572.71 122.357V132.558C572.17 132.396 571.424 132.252 570.47 132.126C569.517 132 568.644 131.938 567.852 131.938C566.161 131.938 564.65 132.306 563.318 133.044C562.005 133.764 560.961 134.771 560.188 136.067C559.432 137.362 559.054 138.856 559.054 140.547V164H547.557ZM589.288 164.783C586.643 164.783 584.286 164.324 582.217 163.406C580.148 162.471 578.511 161.094 577.305 159.277C576.118 157.442 575.524 155.157 575.524 152.422C575.524 150.119 575.947 148.185 576.792 146.619C577.638 145.054 578.789 143.795 580.247 142.841C581.704 141.887 583.359 141.168 585.213 140.682C587.084 140.196 589.045 139.854 591.096 139.656C593.507 139.404 595.45 139.17 596.926 138.955C598.401 138.721 599.472 138.379 600.137 137.929C600.803 137.479 601.136 136.813 601.136 135.932V135.77C601.136 134.061 600.596 132.738 599.517 131.803C598.455 130.867 596.944 130.399 594.983 130.399C592.913 130.399 591.267 130.858 590.044 131.776C588.82 132.675 588.011 133.809 587.615 135.176L576.981 134.312C577.521 131.794 578.583 129.616 580.166 127.781C581.749 125.928 583.791 124.507 586.292 123.517C588.811 122.509 591.726 122.006 595.037 122.006C597.34 122.006 599.544 122.276 601.649 122.815C603.772 123.355 605.652 124.192 607.289 125.325C608.945 126.459 610.249 127.916 611.203 129.697C612.156 131.461 612.633 133.575 612.633 136.04V164H601.73V158.251H601.406C600.74 159.547 599.85 160.689 598.734 161.679C597.618 162.651 596.278 163.415 594.713 163.973C593.147 164.513 591.339 164.783 589.288 164.783ZM592.581 156.848C594.272 156.848 595.765 156.515 597.061 155.849C598.356 155.166 599.373 154.248 600.11 153.097C600.848 151.945 601.217 150.641 601.217 149.183V144.784C600.857 145.018 600.362 145.234 599.733 145.432C599.121 145.612 598.428 145.783 597.654 145.945C596.881 146.089 596.107 146.223 595.333 146.349C594.56 146.457 593.858 146.556 593.228 146.646C591.879 146.844 590.7 147.159 589.693 147.591C588.685 148.023 587.903 148.607 587.345 149.345C586.787 150.065 586.508 150.964 586.508 152.044C586.508 153.609 587.075 154.806 588.208 155.634C589.36 156.443 590.817 156.848 592.581 156.848Z" fill="#173A2B"/>
<path d="M354.425 185.091H367.699L381.719 219.295H382.315L396.335 185.091H409.609V236H399.169V202.864H398.746L385.572 235.751H378.462L365.288 202.74H364.865V236H354.425V185.091ZM435.53 236.746C431.669 236.746 428.329 235.925 425.512 234.285C422.712 232.628 420.549 230.324 419.024 227.374C417.5 224.408 416.737 220.969 416.737 217.058C416.737 213.114 417.5 209.667 419.024 206.717C420.549 203.751 422.712 201.447 425.512 199.807C428.329 198.15 431.669 197.321 435.53 197.321C439.391 197.321 442.722 198.15 445.523 199.807C448.34 201.447 450.511 203.751 452.036 206.717C453.56 209.667 454.323 213.114 454.323 217.058C454.323 220.969 453.56 224.408 452.036 227.374C450.511 230.324 448.34 232.628 445.523 234.285C442.722 235.925 439.391 236.746 435.53 236.746ZM435.58 228.543C437.336 228.543 438.803 228.045 439.98 227.051C441.156 226.04 442.043 224.665 442.639 222.925C443.253 221.185 443.559 219.204 443.559 216.984C443.559 214.763 443.253 212.783 442.639 211.043C442.043 209.303 441.156 207.927 439.98 206.916C438.803 205.905 437.336 205.4 435.58 205.4C433.807 205.4 432.315 205.905 431.105 206.916C429.912 207.927 429.009 209.303 428.396 211.043C427.799 212.783 427.501 214.763 427.501 216.984C427.501 219.204 427.799 221.185 428.396 222.925C429.009 224.665 429.912 226.04 431.105 227.051C432.315 228.045 433.807 228.543 435.58 228.543ZM471.798 213.926V236H461.208V197.818H471.301V204.555H471.748C472.593 202.334 474.01 200.577 475.999 199.285C477.987 197.976 480.399 197.321 483.232 197.321C485.884 197.321 488.196 197.901 490.168 199.061C492.14 200.221 493.673 201.878 494.767 204.033C495.86 206.17 496.407 208.723 496.407 211.689V236H485.818V213.578C485.834 211.241 485.238 209.419 484.028 208.109C482.818 206.784 481.153 206.121 479.031 206.121C477.606 206.121 476.347 206.427 475.253 207.04C474.176 207.654 473.331 208.549 472.718 209.725C472.121 210.885 471.814 212.286 471.798 213.926ZM525.062 197.818V205.773H502.069V197.818H525.062ZM507.289 188.67H517.878V224.267C517.878 225.245 518.027 226.007 518.326 226.554C518.624 227.084 519.038 227.457 519.569 227.673C520.115 227.888 520.745 227.996 521.458 227.996C521.955 227.996 522.452 227.954 522.949 227.871C523.446 227.772 523.828 227.697 524.093 227.648L525.758 235.528C525.228 235.693 524.482 235.884 523.521 236.099C522.56 236.331 521.391 236.472 520.016 236.522C517.464 236.621 515.227 236.282 513.304 235.503C511.399 234.724 509.915 233.514 508.855 231.874C507.794 230.233 507.272 228.161 507.289 225.659V188.67ZM531.96 236V197.818H542.55V236H531.96ZM537.28 192.896C535.705 192.896 534.355 192.374 533.228 191.33C532.118 190.27 531.562 189.002 531.562 187.527C531.562 186.069 532.118 184.817 533.228 183.773C534.355 182.713 535.705 182.183 537.28 182.183C538.854 182.183 540.196 182.713 541.307 183.773C542.434 184.817 542.997 186.069 542.997 187.527C542.997 189.002 542.434 190.27 541.307 191.33C540.196 192.374 538.854 192.896 537.28 192.896ZM551.032 197.818H561.622V237.889C561.622 240.839 561.042 243.225 559.882 245.048C558.722 246.871 557.056 248.205 554.885 249.05C552.731 249.896 550.154 250.318 547.155 250.318C546.79 250.318 546.442 250.31 546.111 250.293C545.763 250.293 545.398 250.285 545.017 250.268V241.991C545.299 242.007 545.547 242.016 545.763 242.016C545.961 242.032 546.177 242.04 546.409 242.04C548.116 242.04 549.309 241.676 549.988 240.947C550.684 240.234 551.032 239.157 551.032 237.715V197.818ZM556.302 192.896C554.745 192.896 553.402 192.374 552.275 191.33C551.148 190.27 550.585 189.002 550.585 187.527C550.585 186.069 551.148 184.817 552.275 183.773C553.402 182.713 554.745 182.183 556.302 182.183C557.893 182.183 559.244 182.713 560.354 183.773C561.481 184.817 562.045 186.069 562.045 187.527C562.045 189.002 561.481 190.27 560.354 191.33C559.244 192.374 557.893 192.896 556.302 192.896ZM587.356 236.746C583.495 236.746 580.156 235.925 577.338 234.285C574.538 232.628 572.375 230.324 570.85 227.374C569.326 224.408 568.564 220.969 568.564 217.058C568.564 213.114 569.326 209.667 570.85 206.717C572.375 203.751 574.538 201.447 577.338 199.807C580.156 198.15 583.495 197.321 587.356 197.321C591.217 197.321 594.548 198.15 597.349 199.807C600.166 201.447 602.337 203.751 603.862 206.717C605.386 209.667 606.149 213.114 606.149 217.058C606.149 220.969 605.386 224.408 603.862 227.374C602.337 230.324 600.166 232.628 597.349 234.285C594.548 235.925 591.217 236.746 587.356 236.746ZM587.406 228.543C589.163 228.543 590.629 228.045 591.806 227.051C592.982 226.04 593.869 224.665 594.466 222.925C595.079 221.185 595.385 219.204 595.385 216.984C595.385 214.763 595.079 212.783 594.466 211.043C593.869 209.303 592.982 207.927 591.806 206.916C590.629 205.905 589.163 205.4 587.406 205.4C585.633 205.4 584.141 205.905 582.931 206.916C581.738 207.927 580.835 209.303 580.222 211.043C579.625 212.783 579.327 214.763 579.327 216.984C579.327 219.204 579.625 221.185 580.222 222.925C580.835 224.665 581.738 226.04 582.931 227.051C584.141 228.045 585.633 228.543 587.406 228.543Z" fill="#265941"/>
<path d="M481.5 258H354.5C353.119 258 352 259.119 352 260.5C352 261.881 353.119 263 354.5 263H481.5C482.881 263 484 261.881 484 260.5C484 259.119 482.881 258 481.5 258Z" fill="#4E7F68"/>
<path d="M364.813 287H362.875C362.76 286.443 362.56 285.953 362.273 285.531C361.992 285.109 361.648 284.755 361.242 284.469C360.841 284.177 360.396 283.958 359.906 283.812C359.417 283.667 358.906 283.594 358.375 283.594C357.406 283.594 356.529 283.839 355.742 284.328C354.961 284.818 354.339 285.539 353.875 286.492C353.417 287.445 353.188 288.615 353.188 290C353.188 291.385 353.417 292.555 353.875 293.508C354.339 294.461 354.961 295.182 355.742 295.672C356.529 296.161 357.406 296.406 358.375 296.406C358.906 296.406 359.417 296.333 359.906 296.187C360.396 296.042 360.841 295.826 361.242 295.539C361.648 295.247 361.992 294.891 362.273 294.469C362.56 294.042 362.76 293.552 362.875 293H364.813C364.667 293.818 364.401 294.549 364.016 295.195C363.63 295.841 363.151 296.391 362.578 296.844C362.005 297.292 361.362 297.633 360.648 297.867C359.94 298.102 359.182 298.219 358.375 298.219C357.01 298.219 355.797 297.885 354.734 297.219C353.672 296.552 352.836 295.604 352.227 294.375C351.617 293.146 351.313 291.687 351.313 290C351.313 288.312 351.617 286.854 352.227 285.625C352.836 284.396 353.672 283.448 354.734 282.781C355.797 282.115 357.01 281.781 358.375 281.781C359.182 281.781 359.94 281.898 360.648 282.133C361.362 282.367 362.005 282.711 362.578 283.164C363.151 283.612 363.63 284.159 364.016 284.805C364.401 285.445 364.667 286.177 364.813 287ZM381.443 290C381.443 291.687 381.139 293.146 380.529 294.375C379.92 295.604 379.084 296.552 378.021 297.219C376.959 297.885 375.745 298.219 374.381 298.219C373.016 298.219 371.803 297.885 370.74 297.219C369.678 296.552 368.842 295.604 368.232 294.375C367.623 293.146 367.318 291.687 367.318 290C367.318 288.312 367.623 286.854 368.232 285.625C368.842 284.396 369.678 283.448 370.74 282.781C371.803 282.115 373.016 281.781 374.381 281.781C375.745 281.781 376.959 282.115 378.021 282.781C379.084 283.448 379.92 284.396 380.529 285.625C381.139 286.854 381.443 288.312 381.443 290ZM379.568 290C379.568 288.615 379.337 287.445 378.873 286.492C378.415 285.539 377.792 284.818 377.006 284.328C376.225 283.839 375.35 283.594 374.381 283.594C373.412 283.594 372.535 283.839 371.748 284.328C370.967 284.818 370.344 285.539 369.881 286.492C369.423 287.445 369.193 288.615 369.193 290C369.193 291.385 369.423 292.555 369.881 293.508C370.344 294.461 370.967 295.182 371.748 295.672C372.535 296.161 373.412 296.406 374.381 296.406C375.35 296.406 376.225 296.161 377.006 295.672C377.792 295.182 378.415 294.461 378.873 293.508C379.337 292.555 379.568 291.385 379.568 290ZM384.701 282H387.014L392.451 295.281H392.639L398.076 282H400.389V298H398.576V285.844H398.42L393.42 298H391.67L386.67 285.844H386.514V298H384.701V282ZM404.273 298V282H413.93V283.719H406.211V289.125H413.43V290.844H406.211V296.281H414.055V298H404.273ZM408.242 280.375L410.148 276.75H412.305L409.867 280.375H408.242ZM417.422 298V282H422.828C424.078 282 425.104 282.214 425.906 282.641C426.708 283.062 427.302 283.643 427.688 284.383C428.073 285.122 428.266 285.964 428.266 286.906C428.266 287.849 428.073 288.685 427.688 289.414C427.302 290.143 426.711 290.716 425.914 291.133C425.117 291.544 424.099 291.75 422.859 291.75H418.484V290H422.797C423.651 290 424.339 289.875 424.859 289.625C425.385 289.375 425.766 289.021 426 288.562C426.24 288.099 426.359 287.547 426.359 286.906C426.359 286.266 426.24 285.706 426 285.227C425.76 284.747 425.378 284.378 424.852 284.117C424.326 283.852 423.63 283.719 422.766 283.719H419.359V298H417.422ZM424.953 290.812L428.891 298H426.641L422.766 290.812H424.953ZM444.369 287H442.432C442.317 286.443 442.117 285.953 441.83 285.531C441.549 285.109 441.205 284.755 440.799 284.469C440.398 284.177 439.952 283.958 439.463 283.812C438.973 283.667 438.463 283.594 437.932 283.594C436.963 283.594 436.085 283.839 435.299 284.328C434.518 284.818 433.895 285.539 433.432 286.492C432.973 287.445 432.744 288.615 432.744 290C432.744 291.385 432.973 292.555 433.432 293.508C433.895 294.461 434.518 295.182 435.299 295.672C436.085 296.161 436.963 296.406 437.932 296.406C438.463 296.406 438.973 296.333 439.463 296.187C439.952 296.042 440.398 295.826 440.799 295.539C441.205 295.247 441.549 294.891 441.83 294.469C442.117 294.042 442.317 293.552 442.432 293H444.369C444.223 293.818 443.958 294.549 443.572 295.195C443.187 295.841 442.708 296.391 442.135 296.844C441.562 297.292 440.919 297.633 440.205 297.867C439.497 298.102 438.739 298.219 437.932 298.219C436.567 298.219 435.354 297.885 434.291 297.219C433.229 296.552 432.393 295.604 431.783 294.375C431.174 293.146 430.869 291.687 430.869 290C430.869 288.312 431.174 286.854 431.783 285.625C432.393 284.396 433.229 283.448 434.291 282.781C435.354 282.115 436.567 281.781 437.932 281.781C438.739 281.781 439.497 281.898 440.205 282.133C440.919 282.367 441.562 282.711 442.135 283.164C442.708 283.612 443.187 284.159 443.572 284.805C443.958 285.445 444.223 286.177 444.369 287ZM449.438 282V298H447.5V282H449.438ZM466.822 290C466.822 291.687 466.518 293.146 465.908 294.375C465.299 295.604 464.463 296.552 463.4 297.219C462.338 297.885 461.124 298.219 459.76 298.219C458.395 298.219 457.182 297.885 456.119 297.219C455.057 296.552 454.221 295.604 453.611 294.375C453.002 293.146 452.697 291.687 452.697 290C452.697 288.312 453.002 286.854 453.611 285.625C454.221 284.396 455.057 283.448 456.119 282.781C457.182 282.115 458.395 281.781 459.76 281.781C461.124 281.781 462.338 282.115 463.4 282.781C464.463 283.448 465.299 284.396 465.908 285.625C466.518 286.854 466.822 288.312 466.822 290ZM464.947 290C464.947 288.615 464.715 287.445 464.252 286.492C463.794 285.539 463.171 284.818 462.385 284.328C461.604 283.839 460.729 283.594 459.76 283.594C458.791 283.594 457.913 283.839 457.127 284.328C456.346 284.818 455.723 285.539 455.26 286.492C454.801 287.445 454.572 288.615 454.572 290C454.572 291.385 454.801 292.555 455.26 293.508C455.723 294.461 456.346 295.182 457.127 295.672C457.913 296.161 458.791 296.406 459.76 296.406C460.729 296.406 461.604 296.161 462.385 295.672C463.171 295.182 463.794 294.461 464.252 293.508C464.715 292.555 464.947 291.385 464.947 290ZM476.268 298V282H478.205V296.281H485.643V298H476.268ZM501.52 290C501.52 291.687 501.215 293.146 500.605 294.375C499.996 295.604 499.16 296.552 498.098 297.219C497.035 297.885 495.822 298.219 494.457 298.219C493.092 298.219 491.879 297.885 490.816 297.219C489.754 296.552 488.918 295.604 488.309 294.375C487.699 293.146 487.395 291.687 487.395 290C487.395 288.312 487.699 286.854 488.309 285.625C488.918 284.396 489.754 283.448 490.816 282.781C491.879 282.115 493.092 281.781 494.457 281.781C495.822 281.781 497.035 282.115 498.098 282.781C499.16 283.448 499.996 284.396 500.605 285.625C501.215 286.854 501.52 288.312 501.52 290ZM499.645 290C499.645 288.615 499.413 287.445 498.949 286.492C498.491 285.539 497.868 284.818 497.082 284.328C496.301 283.839 495.426 283.594 494.457 283.594C493.488 283.594 492.611 283.839 491.824 284.328C491.043 284.818 490.421 285.539 489.957 286.492C489.499 287.445 489.27 288.615 489.27 290C489.27 291.385 489.499 292.555 489.957 293.508C490.421 294.461 491.043 295.182 491.824 295.672C492.611 296.161 493.488 296.406 494.457 296.406C495.426 296.406 496.301 296.161 497.082 295.672C497.868 295.182 498.491 294.461 498.949 293.508C499.413 292.555 499.645 291.385 499.645 290ZM517.652 287H515.715C515.6 286.443 515.4 285.953 515.113 285.531C514.832 285.109 514.488 284.755 514.082 284.469C513.681 284.177 513.236 283.958 512.746 283.812C512.257 283.667 511.746 283.594 511.215 283.594C510.246 283.594 509.368 283.839 508.582 284.328C507.801 284.818 507.178 285.539 506.715 286.492C506.257 287.445 506.027 288.615 506.027 290C506.027 291.385 506.257 292.555 506.715 293.508C507.178 294.461 507.801 295.182 508.582 295.672C509.368 296.161 510.246 296.406 511.215 296.406C511.746 296.406 512.257 296.333 512.746 296.187C513.236 296.042 513.681 295.826 514.082 295.539C514.488 295.247 514.832 294.891 515.113 294.469C515.4 294.042 515.6 293.552 515.715 293H517.652C517.507 293.818 517.241 294.549 516.855 295.195C516.47 295.841 515.991 296.391 515.418 296.844C514.845 297.292 514.202 297.633 513.488 297.867C512.78 298.102 512.022 298.219 511.215 298.219C509.85 298.219 508.637 297.885 507.574 297.219C506.512 296.552 505.676 295.604 505.066 294.375C504.457 293.146 504.152 291.687 504.152 290C504.152 288.312 504.457 286.854 505.066 285.625C505.676 284.396 506.512 283.448 507.574 282.781C508.637 282.115 509.85 281.781 511.215 281.781C512.022 281.781 512.78 281.898 513.488 282.133C514.202 282.367 514.845 282.711 515.418 283.164C515.991 283.612 516.47 284.159 516.855 284.805C517.241 285.445 517.507 286.177 517.652 287ZM521.439 298H519.408L525.283 282H527.283L533.158 298H531.127L526.346 284.531H526.221L521.439 298ZM522.189 291.75H530.377V293.469H522.189V291.75ZM535.65 298V282H537.588V296.281H545.025V298H535.65Z" fill="#5E6F66"/>
<defs>
<linearGradient id="paint0_linear_1001_17" x1="72" y1="48" x2="280" y2="292" gradientUnits="userSpaceOnUse">
<stop stop-color="#4E7F68"/>
<stop offset="1" stop-color="#265941"/>
</linearGradient>
<linearGradient id="paint1_linear_1001_17" x1="72" y1="48" x2="280" y2="292" gradientUnits="userSpaceOnUse">
<stop stop-color="#4E7F68"/>
<stop offset="1" stop-color="#265941"/>
</linearGradient>
<linearGradient id="paint2_linear_1001_17" x1="84" y1="258" x2="278" y2="258" gradientUnits="userSpaceOnUse">
<stop stop-color="#4E7F68"/>
<stop offset="1" stop-color="#6A9DB0"/>
</linearGradient>
</defs>
</svg>
